<svg t="1679993375642" class="icon" viewBox="0 0 1024 1024" version="1.1" xmlns="http://www.w3.org/2000/svg" p-id="9674" width="48" height="48"><path d="M287.402667 466.944l-8.533334-15.701333c-16.725333-30.037333-25.258667-64.170667-25.258666-98.645334 0-113.322667 92.16-205.482667 205.482666-205.482666 51.882667 0 101.376 19.456 139.264 54.613333 37.888 35.157333 61.098667 82.602667 65.194667 133.802667l2.389333 30.378666-30.037333-4.778666c-75.776-11.946667-177.834667 19.456-294.912 90.794666l-2.048 1.365334-2.048 0.682666c-0.341333 0.341333-12.629333 4.778667-31.744 8.874667l-17.749333 4.096z m171.349333-272.042667c-86.698667 0-157.696 70.656-157.696 157.696 0 20.138667 4.096 40.277333 11.605333 59.050667 2.389333-0.682667 4.096-1.365333 5.461334-1.706667 112.298667-68.266667 210.602667-101.717333 292.522666-98.986666-18.773333-67.242667-80.554667-116.053333-151.893333-116.053334zM102.4 520.533333C47.445333 520.533333 2.730667 475.818667 2.730667 420.864S47.445333 321.194667 102.4 321.194667s99.669333 44.714667 99.669333 99.669333c-0.341333 54.954667-45.056 99.669333-99.669333 99.669333z m0-151.210666c-28.672 0-51.882667 23.210667-51.882667 51.882666 0 28.672 23.210667 51.882667 51.882667 51.882667 28.672 0 51.882667-23.210667 51.882667-51.882667-0.341333-28.672-23.552-51.882667-51.882667-51.882666z" fill="#1296db" p-id="9675"></path><path d="M816.128 655.018667h-7.850667l-25.941333-1.024 3.072-25.941334c8.874667-72.362667-10.581333-154.282667-48.810667-203.776l-1.365333-1.706666-1.024-2.048c-0.682667-1.365333-20.138667-36.864-73.045333-53.589334l-31.402667-9.898666 19.114667-26.624C687.445333 276.48 749.909333 244.394667 815.786667 244.394667c113.322667 0 205.482667 92.16 205.482666 205.482666 0 112.981333-92.16 205.141333-205.141333 205.141334z m-40.618667-258.389334c40.277333 53.248 62.464 132.778667 59.733334 209.578667 77.824-9.557333 138.24-76.117333 138.24-156.330667 0-86.698667-70.656-157.696-157.696-157.696-40.277333 0-78.848 15.701333-107.861334 42.666667 42.666667 22.186667 62.464 52.906667 67.584 61.781333z" fill="#1296db" p-id="9676"></path><path d="M527.018667 876.885333c-16.042667 0-32.768-0.682667-50.517334-2.389333-123.221333-10.581333-221.525333-60.757333-292.864-149.504-60.757333-75.093333-88.746667-163.157333-101.376-223.914667l-5.802666-27.648 28.330666-1.365333c21.504-1.024 40.618667-15.36 47.104-36.181333l6.485334-20.138667 20.821333 3.754667c66.56 12.288 127.658667-6.485333 139.264-10.581334 133.802667-81.578667 247.466667-112.981333 337.237333-93.866666 75.093333 16.042667 109.568 63.488 118.442667 77.824 1.365333 2.048 2.730667 4.437333 4.778667 6.826666 58.709333 81.237333 82.261333 230.741333 19.797333 340.992-36.522667 64.512-112.298667 136.192-271.701333 136.192z m-392.533334-361.813333c30.037333 117.418667 113.664 291.84 346.112 311.978667 133.802667 11.605333 229.034667-26.282667 276.138667-109.226667 52.906667-93.184 32.768-220.501333-17.066667-289.450667-2.389333-3.413333-4.778667-6.485333-6.485333-9.557333-6.144-10.24-31.061333-44.032-87.722667-55.978667-77.141333-16.384-182.272 14.336-304.810666 89.088l-2.048 1.365334-2.048 0.682666c-3.072 1.024-69.290667 25.258667-147.797334 16.042667-11.946667 21.162667-31.402667 37.205333-54.272 45.056z" fill="#1296db" p-id="9677"></path><path d="M526.677333 524.629333c-27.306667 0-49.493333-22.186667-49.493333-49.493333s22.186667-49.493333 49.493333-49.493333 49.493333 22.186667 49.493334 49.493333-22.186667 49.493333-49.493334 49.493333z m0-51.2c-1.024 0-1.706667 0.682667-1.706666 1.706667s0.682667 1.706667 1.706666 1.706667 1.706667-0.682667 1.706667-1.706667-1.024-1.706667-1.706667-1.706667zM345.088 803.498667c-59.733333 0-103.082667-20.48-104.789333-21.504l20.821333-43.008c5.802667 2.730667 144.042667 66.218667 255.658667-71.338667l37.205333 30.037333c-70.656 87.04-152.234667 105.472-207.872 105.813334h-1.024z" fill="#1296db" p-id="9678"></path></svg>